<svg xmlns="http://www.w3.org/2000/svg" width="640" height="400" viewBox="0 0 640 400">
  <defs>
    <linearGradient id="bg" x1="0" y1="0" x2="1" y2="1">
      <stop offset="0%" stop-color="#e0f5ef"/>
      <stop offset="100%" stop-color="#c8ebe0"/>
    </linearGradient>
    <linearGradient id="bar" x1="0" y1="0" x2="1" y2="0">
      <stop offset="0%" stop-color="#6bbaa7"/>
      <stop offset="100%" stop-color="#4da692"/>
    </linearGradient>
  </defs>
  <!-- Background -->
  <rect width="640" height="400" rx="12" fill="url(#bg)"/>
  <!-- Sidebar mock -->
  <rect x="30" y="30" width="120" height="340" rx="8" fill="#fff" opacity="0.7"/>
  <circle cx="90" cy="75" r="22" fill="url(#bar)" opacity="0.6"/>
  <rect x="55" y="110" width="70" height="6" rx="3" fill="#6bbaa7" opacity="0.3"/>
  <rect x="50" y="130" width="80" height="5" rx="2.5" fill="#9ed4c5" opacity="0.25"/>
  <rect x="50" y="145" width="80" height="5" rx="2.5" fill="#9ed4c5" opacity="0.25"/>
  <rect x="50" y="160" width="80" height="5" rx="2.5" fill="#9ed4c5" opacity="0.25"/>
  <rect x="50" y="175" width="80" height="5" rx="2.5" fill="#9ed4c5" opacity="0.25"/>
  <rect x="50" y="190" width="80" height="5" rx="2.5" fill="#9ed4c5" opacity="0.25"/>
  <rect x="50" y="205" width="80" height="5" rx="2.5" fill="#9ed4c5" opacity="0.25"/>
  <!-- Main content mock -->
  <rect x="170" y="30" width="440" height="340" rx="8" fill="#fff" opacity="0.8"/>
  <!-- Hero gradient block -->
  <rect x="195" y="55" width="390" height="110" rx="12" fill="url(#bar)" opacity="0.12"/>
  <!-- Avatar -->
  <circle cx="390" cy="90" r="18" fill="url(#bar)" opacity="0.4"/>
  <!-- Name -->
  <rect x="350" y="115" width="80" height="10" rx="4" fill="#4da692" opacity="0.5"/>
  <!-- Tags -->
  <rect x="330" y="135" width="40" height="6" rx="3" fill="#6bbaa7" opacity="0.2"/>
  <rect x="375" y="135" width="40" height="6" rx="3" fill="#6bbaa7" opacity="0.2"/>
  <rect x="420" y="135" width="40" height="6" rx="3" fill="#6bbaa7" opacity="0.2"/>
  <!-- Content rows -->
  <rect x="195" y="185" width="120" height="8" rx="3" fill="#4da692" opacity="0.35"/>
  <rect x="195" y="210" width="390" height="28" rx="6" fill="#f0faf7" opacity="0.8"/>
  <rect x="205" y="218" width="200" height="5" rx="2" fill="#9ed4c5" opacity="0.4"/>
  <rect x="205" y="228" width="160" height="4" rx="2" fill="#cce8df" opacity="0.35"/>
  <rect x="195" y="248" width="390" height="28" rx="6" fill="#f0faf7" opacity="0.8"/>
  <rect x="205" y="256" width="180" height="5" rx="2" fill="#9ed4c5" opacity="0.4"/>
  <rect x="205" y="266" width="140" height="4" rx="2" fill="#cce8df" opacity="0.35"/>
  <rect x="195" y="286" width="390" height="28" rx="6" fill="#f0faf7" opacity="0.8"/>
  <rect x="205" y="294" width="220" height="5" rx="2" fill="#9ed4c5" opacity="0.4"/>
  <rect x="205" y="304" width="170" height="4" rx="2" fill="#cce8df" opacity="0.35"/>
  <!-- Label -->
  <text x="390" y="355" font-family="system-ui, sans-serif" font-size="11" fill="#6bbaa7" text-anchor="middle" opacity="0.6">AI-Powered Personal Site</text>
</svg>
